<?xml version="1.0" standalone="no"?>
<!DOCTYPE svg PUBLIC "-//W3C//DTD SVG 20010904//EN"
 "http://www.w3.org/TR/2001/REC-SVG-20010904/DTD/svg10.dtd">
<svg version="1.0" xmlns="http://www.w3.org/2000/svg"
 width="1024.000000pt" height="1024.000000pt" viewBox="0 0 1024.000000 1024.000000"
 preserveAspectRatio="xMidYMid meet">

<g transform="translate(0.000000,1024.000000) scale(0.100000,-0.100000)"
fill="#000000" stroke="none">
<path d="M4845 10004 c-1048 -67 -2018 -438 -2820 -1079 -991 -791 -1636
-1934 -1795 -3178 -277 -2175 922 -4248 2960 -5117 421 -180 936 -311 1435
-366 225 -25 755 -25 980 0 1303 143 2452 746 3277 1718 1162 1367 1477 3255
821 4918 -526 1336 -1623 2377 -2994 2845 -337 115 -731 201 -1099 240 -138
15 -635 27 -765 19z m685 -275 c801 -72 1549 -339 2215 -790 1043 -707 1758
-1813 1965 -3042 49 -292 63 -462 63 -772 0 -523 -70 -955 -233 -1445 -275
-826 -765 -1543 -1440 -2104 -579 -482 -1296 -826 -2032 -976 -338 -68 -594
-94 -953 -94 -148 0 -328 6 -400 13 -1091 102 -2028 524 -2829 1274 -107 100
-117 112 -101 123 17 12 16 14 -6 22 -13 5 -31 11 -40 13 -35 8 -279 297 -434
513 -396 555 -672 1219 -785 1889 -49 292 -63 462 -63 772 0 523 70 955 233
1445 328 985 965 1817 1836 2398 681 454 1476 720 2310 772 161 10 528 4 694
-11z"/>
<path d="M3745 9180 c-11 -5 -37 -9 -59 -9 -26 -1 -49 -10 -75 -30 -21 -16
-49 -33 -64 -36 -31 -8 -77 -58 -77 -83 1 -9 8 -35 16 -57 33 -87 35 -99 23
-143 -11 -40 -10 -45 12 -68 36 -39 64 -46 106 -29 74 31 95 18 127 -82 20
-59 73 -114 159 -163 l54 -30 6 -65 c4 -36 15 -84 25 -108 l18 -42 23 95 c24
98 55 185 73 208 18 21 19 7 4 -29 -8 -19 -34 -113 -59 -209 -25 -96 -48 -182
-52 -191 -4 -11 13 -51 44 -105 90 -161 151 -343 151 -456 0 -33 -9 -96 -21
-140 -11 -45 -17 -84 -12 -88 4 -3 42 -19 83 -35 98 -37 193 -84 277 -139 107
-69 158 -91 334 -146 176 -54 311 -101 307 -106 -5 -5 -437 123 -495 147 -30
12 -105 54 -166 92 -117 74 -213 119 -384 182 -57 20 -194 82 -305 137 -112
55 -218 102 -237 106 -32 5 -38 0 -134 -98 -98 -102 -143 -172 -131 -204 3 -9
11 -16 18 -16 6 0 18 -15 26 -33 9 -20 24 -33 38 -35 13 -2 27 -14 32 -26 12
-33 65 -74 105 -82 46 -8 58 1 51 42 -6 27 -3 35 15 44 18 10 34 6 98 -23 103
-47 184 -64 242 -49 38 10 49 9 87 -10 24 -11 46 -27 49 -34 3 -8 -5 -62 -16
-121 -12 -59 -31 -188 -42 -287 -22 -203 -32 -239 -93 -329 -72 -105 -79 -123
-67 -173 16 -61 14 -70 -18 -106 -15 -18 -34 -44 -40 -57 -14 -26 -32 -233
-36 -421 -2 -69 -6 -189 -10 -267 -22 -436 129 -682 468 -765 81 -20 88 -23
82 -42 -24 -72 -20 -87 31 -131 47 -41 47 -43 35 -73 -7 -17 -21 -38 -32 -48
-24 -22 -24 -47 0 -159 50 -228 105 -611 109 -756 l4 -147 40 -6 40 -7 -9
-107 c-4 -59 -7 -146 -6 -194 0 -49 -2 -88 -5 -88 -3 0 -56 14 -117 32 -83 24
-130 32 -195 32 -99 1 -141 -11 -313 -91 -101 -47 -128 -56 -195 -60 -96 -7
-282 10 -472 42 -80 13 -179 28 -220 31 -72 7 -77 9 -140 61 -151 125 -330
164 -330 73 0 -14 -12 -23 -42 -31 -24 -7 -52 -21 -63 -31 -20 -18 -20 -19 12
-44 20 -15 33 -35 33 -47 0 -34 -27 -65 -58 -69 -35 -4 -40 -34 -13 -87 12
-22 21 -51 21 -64 0 -13 -48 -120 -106 -237 -99 -199 -107 -212 -130 -207 -20
3 -28 -2 -39 -24 -20 -39 -19 -48 10 -61 l25 -11 -7 -151 c-7 -175 4 -247 42
-272 21 -14 27 -14 53 0 46 24 104 98 189 241 84 143 165 233 235 265 34 15
66 20 150 20 98 0 107 2 113 20 10 31 -3 59 -36 75 -16 9 -29 19 -29 24 0 11
107 54 180 72 72 18 265 15 440 -6 74 -9 225 -24 335 -35 110 -10 292 -29 405
-41 141 -16 270 -23 415 -23 197 -1 214 0 267 22 159 64 219 182 273 532 14
91 38 226 55 300 70 327 103 646 128 1245 l7 170 28 0 c25 0 30 -7 60 -81 66
-162 224 -376 340 -458 34 -24 125 -75 202 -114 77 -39 158 -83 181 -99 222
-155 464 -334 528 -390 43 -37 96 -81 118 -97 l40 -28 -31 -29 c-39 -35 -40
-65 -3 -86 28 -16 29 -18 24 -87 -2 -39 1 -90 7 -114 14 -50 59 -105 101 -122
17 -7 36 -24 43 -39 17 -35 44 -39 58 -8 9 20 21 26 66 31 43 5 60 3 72 -8 10
-9 26 -13 39 -9 17 4 22 13 22 39 0 35 28 61 55 51 22 -9 55 22 55 52 0 21 17
44 73 97 104 101 184 144 204 111 12 -21 53 -4 53 22 0 29 72 64 111 56 34 -8
69 16 69 45 0 17 94 97 108 93 4 -1 14 -4 23 -8 9 -3 23 1 32 10 13 12 14 21
6 44 -8 22 -7 36 4 58 37 71 33 178 -8 219 -34 34 -105 32 -236 -6 -111 -32
-168 -36 -247 -19 -65 13 -195 64 -200 77 -2 6 6 16 18 22 44 23 100 82 100
105 0 30 -30 55 -66 55 -34 -1 -57 -16 -90 -61 l-24 -33 0 61 c0 63 -17 93
-53 93 -20 0 -40 -35 -34 -58 4 -13 5 -12 6 4 0 12 8 28 17 35 14 11 19 10 36
-11 17 -21 19 -34 15 -88 -10 -99 -21 -108 -45 -32 -12 36 -21 58 -21 49 -1
-9 6 -36 14 -59 21 -61 20 -65 -29 -84 -73 -28 -108 -77 -150 -207 -20 -63
-45 -125 -56 -139 -17 -22 -16 -17 5 45 13 39 33 104 45 145 17 57 31 83 60
112 l38 39 -69 35 c-73 37 -129 82 -374 304 -82 75 -204 182 -270 237 -133
111 -289 268 -382 383 -33 41 -105 143 -160 225 -55 83 -121 170 -147 193 -45
42 -117 80 -218 116 -67 24 -114 59 -110 80 2 10 -6 68 -18 128 -22 109 -22
143 -4 286 4 32 2 69 -6 97 -17 60 -9 84 51 152 29 33 75 105 105 165 45 90
61 112 97 135 99 64 276 204 320 253 60 66 106 150 159 282 22 57 64 160 93
229 120 287 156 451 120 558 -20 61 -91 143 -179 206 -34 24 -83 66 -109 93
l-48 49 -112 -112 c-62 -62 -150 -153 -197 -202 -94 -100 -148 -140 -200 -148
l-35 -6 43 20 c59 28 125 86 211 185 40 46 113 119 163 162 106 93 132 133
157 245 10 46 30 117 45 156 14 40 26 79 26 87 0 23 14 27 71 16 30 -6 66 -8
81 -4 l28 6 -26 34 c-30 39 -28 39 40 19 27 -8 66 -15 86 -15 54 0 135 27 170
56 33 28 42 61 13 49 -28 -10 -73 -18 -73 -12 0 3 16 24 35 47 33 40 60 105
49 122 -3 4 -21 -4 -40 -18 -45 -35 -117 -43 -168 -19 -50 24 -126 101 -247
252 -148 184 -239 272 -324 314 -64 31 -77 34 -160 34 -73 0 -98 -4 -131 -22
-47 -25 -108 -89 -131 -138 -13 -27 -23 -35 -44 -35 -51 0 -79 -18 -99 -62
-27 -63 -70 -258 -70 -321 0 -70 6 -84 40 -102 16 -8 33 -29 39 -47 l11 -33
-26 33 c-45 57 -111 36 -149 -47 -14 -33 -20 -38 -29 -26 -18 22 -273 134
-358 155 -112 29 -125 36 -184 89 -29 27 -65 52 -80 55 -14 4 -44 21 -66 39
-32 26 -49 32 -92 33 -53 1 -54 2 -129 80 -42 44 -91 100 -111 125 -21 28 -50
53 -73 62 -21 8 -47 22 -58 31 -20 15 -20 15 3 9 18 -4 22 -1 22 18 0 26 -68
150 -102 187 -22 23 -65 28 -103 12z m152 -182 c-3 -8 -6 -5 -6 6 -1 11 2 17
5 13 3 -3 4 -12 1 -19z m2108 -2019 c66 -25 140 -81 161 -121 l17 -33 -45 41
c-55 51 -114 85 -195 114 -35 13 -63 25 -63 27 0 7 74 -9 125 -28z m-882 -725
c49 -25 143 -68 210 -95 133 -53 138 -64 12 -23 -145 47 -337 148 -422 223
-42 35 -24 30 44 -15 37 -24 107 -65 156 -90z m-434 -585 c154 -24 222 -63
445 -249 89 -74 185 -153 214 -174 28 -22 50 -42 48 -44 -8 -7 -151 96 -276
198 -146 120 -222 173 -293 206 -66 30 -181 54 -257 54 -32 0 -62 5 -65 10 -8
13 101 13 184 -1z m1266 -1029 c16 -7 13 -9 -16 -9 -99 -2 -207 -62 -270 -150
-46 -63 -44 -32 2 36 43 61 114 107 192 123 55 10 68 10 92 0z m1518 -892 c8
-23 -20 -63 -61 -86 -40 -22 -72 -29 -72 -14 0 14 42 77 63 94 26 21 63 23 70
6z m-2277 -316 c22 -11 46 -28 54 -37 10 -12 5 -11 -22 4 -85 51 -216 48 -400
-9 -54 -17 -105 -33 -115 -36 -10 -3 -2 4 17 15 40 23 166 67 231 81 70 14
189 5 235 -18z m-874 -893 c-5 -116 6 -183 49 -278 37 -82 9 -61 -31 24 -37
77 -53 181 -40 259 9 58 19 96 24 96 2 0 1 -45 -2 -101z m-1512 29 c-77 -95
-103 -156 -98 -224 6 -67 29 -101 88 -131 51 -27 39 -30 -20 -7 -29 12 -48 29
-67 62 -52 88 -27 187 78 305 68 77 82 73 19 -5z"/>
<path d="M8136 5094 c-224 -54 -405 -238 -451 -459 -63 -301 105 -592 402
-696 82 -29 228 -36 316 -15 275 65 467 305 467 586 0 164 -58 301 -179 421
-149 149 -359 210 -555 163z"/>
<path d="M1344 1735 c-27 -42 -11 -48 31 -11 l40 35 -27 1 c-19 0 -33 -8 -44
-25z"/>
<path d="M1516 1430 c-14 -22 -40 -47 -57 -55 -43 -23 -31 -28 25 -11 76 23
108 65 72 95 -10 9 -19 3 -40 -29z"/>
<path d="M1329 1410 c-58 -31 -106 -81 -119 -127 -12 -39 -11 -46 11 -89 14
-26 30 -49 38 -52 10 -3 11 0 2 16 -27 50 5 142 78 225 47 51 45 56 -10 27z"/>
</g>
</svg>
